<svg width="27" height="51" viewBox="0 0 27 51" fill="none" xmlns="http://www.w3.org/2000/svg">
<path d="M15.4127 14.0821L11.9225 18.2181L8.93264 16.1336C5.53677 13.7661 4.90928 8.99004 7.58332 5.82649L12.5049 0L13.6696 0.812427C18.0416 3.86108 18.8496 10.0076 15.4127 14.0821Z" fill="url(#paint0_linear_2005_2)"/>
<path d="M19.5017 43.0709L12.9232 50.8628L11.9225 50.1653C7.51769 47.0961 6.70153 40.9003 10.1671 36.7931L14.2766 31.9226L18.4189 34.8071C21.1381 36.7028 21.6425 40.531 19.5017 43.0627V43.0709Z" fill="url(#paint1_linear_2005_2)"/>
<path d="M22.635 25.6818L20.6951 24.3318L11.9224 18.2181L8.41174 15.7685L8.41994 15.7316C5.48751 13.2574 5.05688 8.82185 7.58327 5.82654L2.6043 11.7228L1.90708 12.5475C-1.16479 16.1788 -0.438857 21.6689 3.46147 24.3811L5.50802 25.809L14.2807 31.9268L18.9685 35.1929L18.9357 35.2175C21.1955 37.2158 21.499 40.7034 19.5057 43.0669L23.4922 38.3441L24.1894 37.5194C27.2613 33.8881 26.5436 28.3981 22.6391 25.6777L22.635 25.6818Z" fill="url(#paint2_linear_2005_2)"/>
<defs>
<linearGradient id="paint0_linear_2005_2" x1="15.8187" y1="4.58324" x2="7.57055" y2="14.8293" gradientUnits="userSpaceOnUse">
<stop stop-color="#3D4BF2"/>
<stop offset="1" stop-color="#FD34FC"/>
</linearGradient>
<linearGradient id="paint1_linear_2005_2" x1="9.51092" y1="48.1178" x2="18.4903" y2="34.2898" gradientUnits="userSpaceOnUse">
<stop stop-color="#FD34FC"/>
<stop offset="1" stop-color="#3D4BF2"/>
</linearGradient>
<linearGradient id="paint2_linear_2005_2" x1="1.91529" y1="15.469" x2="23.1426" y2="31.8477" gradientUnits="userSpaceOnUse">
<stop stop-color="#3135F6"/>
<stop offset="1" stop-color="#18EAE7"/>
</linearGradient>
</defs>
</svg>
