<svg width="149" height="56" viewBox="0 0 149 56" fill="none" xmlns="http://www.w3.org/2000/svg">
<g clip-path="url(#clip0_2_10)">
<path d="M30.8048 10.6887L41.3164 32.3124L51.0078 10.6887H56.5117L66.2031 32.3124L76.7147 10.6887H84.1749L69.8942 39.374H62.352L53.7638 20.1137L45.1757 39.374H37.6335L23.3445 10.6887H30.8048Z" fill="white"/>
<path d="M93.3824 2.12134V7.68523H86.6398V2.12134H93.3824ZM93.3824 10.6887V39.374H86.6398V10.6887H93.3824Z" fill="white"/>
<path d="M119.836 0.455444V6.01934H110.981C109.648 6.01934 109.074 6.32707 108.524 6.79483C107.61 7.71394 107.56 7.93551 107.56 10.6477H119.832V16.1952L107.56 16.2362V39.3699L100.822 39.3781V16.2403H96.5116V10.6928L100.826 10.7175C100.826 10.7175 100.925 8.10785 101.097 7.36928C101.548 5.42438 102.532 3.7667 103.869 2.63012C105.715 1.06271 107.995 0.455444 110.14 0.455444H119.836Z" fill="white"/>
<path d="M124.991 3.63135H131.734V10.6929H149V16.2609H131.734V30.1542C131.754 32.1771 132.148 32.5751 132.697 33.0428C133.247 33.5106 134.153 33.8183 135.154 33.8183H138.812C139.813 33.8183 140.719 33.5106 141.269 33.0428C141.757 32.6284 142.122 32.2632 142.212 30.7533H148.926C148.881 31.2867 148.807 32.0211 148.705 32.4684C148.258 34.4133 147.269 36.071 145.932 37.2076C144.083 38.775 141.806 39.3822 139.661 39.3822H134.313C132.168 39.3822 129.888 38.775 128.042 37.2076C126.705 36.0751 125.717 34.4133 125.27 32.4684C125.098 31.7298 124.999 30.1214 124.999 30.1214V16.2609H120.685V10.6929H124.999V3.63135H124.991Z" fill="white"/>
<path d="M73.9668 49.6812L78.4782 55.9918H76.9526L75.9108 54.5311H70.9934L69.9516 55.9918H68.426L72.9374 49.6812H73.9709H73.9668ZM71.7234 53.5094H75.1726L73.446 51.0967L71.7193 53.5094H71.7234Z" fill="white"/>
<path d="M86.1271 50.7069C86.8982 50.7069 87.8415 51.2198 87.8415 52.2907H86.6029C86.6029 52.0527 86.4962 51.7327 85.9713 51.7327H82.7312C82.2063 51.7327 82.0873 52.0527 82.0873 52.2907V54.4203C82.0873 54.6583 82.2104 54.9783 82.7312 54.9783H85.9713C86.4962 54.9783 86.6029 54.6583 86.6029 54.4203H87.8415C87.8415 55.4871 86.8982 56.0041 86.1271 56.0041H82.5795C81.8085 56.0041 80.8488 55.4912 80.8488 54.4203V52.2907C80.8488 51.2239 81.8085 50.7069 82.5795 50.7069H86.1271Z" fill="white"/>
<path d="M92.074 49.1272V51.068C92.4062 50.8054 92.8082 50.7028 93.1855 50.7028H95.5765C95.9703 50.7028 96.3927 50.8136 96.7331 51.1049C96.9792 51.3142 97.1637 51.6178 97.2458 51.9789C97.2786 52.1143 97.2868 52.2661 97.295 52.4097C97.3196 52.8406 97.3114 55.5774 97.3032 55.9918H96.0523V52.4015C96.0482 52.0281 95.9744 51.9543 95.8759 51.8681C95.7775 51.7819 95.6094 51.7245 95.4248 51.7245H92.722C92.5375 51.7245 92.3693 51.7819 92.2709 51.8681C92.1684 51.9543 92.0987 52.0281 92.0945 52.4015C92.0945 52.459 92.0781 55.9918 92.0781 55.9918H90.8354V49.1272H92.0781H92.074Z" fill="white"/>
<path d="M101.716 49.1272V50.153H100.473V49.1272H101.716ZM101.716 50.7069V55.9918H100.473V50.7069H101.716Z" fill="white"/>
<path d="M110.111 50.7028C110.883 50.7028 111.826 51.2157 111.826 52.2866V53.8376H106.072V54.4161C106.072 54.6541 106.195 54.9742 106.716 54.9742H109.956C110.481 54.9742 110.587 54.6541 110.587 54.4161H111.826C111.826 55.4829 110.883 55.9999 110.111 55.9999H106.564C105.793 55.9999 104.833 55.487 104.833 54.4161V52.2866C104.833 51.2198 105.793 50.7028 106.564 50.7028H110.116H110.111ZM106.716 51.7286C106.191 51.7286 106.072 52.0486 106.072 52.2866V52.8159H110.587V52.2866C110.587 52.0486 110.481 51.7286 109.956 51.7286H106.716Z" fill="white"/>
<path d="M115.681 50.7069L116.649 52.2948L117.334 53.415L118.105 54.6788L119.811 51.8804L120.496 50.7602L120.529 50.7069H121.985L121.115 52.1307L120.43 53.2509L118.757 55.9918H117.449L116.715 54.7855L116.03 53.6653L114.225 50.7069H115.681Z" fill="white"/>
<path d="M129.662 50.7028C130.433 50.7028 131.377 51.2157 131.377 52.2866V53.8376H125.623V54.4161C125.623 54.6541 125.746 54.9742 126.267 54.9742H129.507C130.032 54.9742 130.138 54.6541 130.138 54.4161H131.377C131.377 55.4829 130.433 55.9999 129.662 55.9999H126.115C125.344 55.9999 124.384 55.487 124.384 54.4161V52.2866C124.384 51.2198 125.344 50.7028 126.115 50.7028H129.667H129.662ZM126.267 51.7286C125.742 51.7286 125.623 52.0486 125.623 52.2866V52.8159H130.138V52.2866C130.138 52.0486 130.032 51.7286 129.507 51.7286H126.267Z" fill="white"/>
<path d="M138.05 50.7069C138.443 50.7069 138.866 50.8177 139.206 51.109C139.452 51.3183 139.633 51.626 139.719 51.983C139.743 52.0897 139.756 52.2046 139.764 52.3195H138.525C138.513 52.024 138.443 51.9543 138.349 51.8763C138.246 51.7901 138.082 51.7327 137.898 51.7327H136.376C136.192 51.7327 136.024 51.7901 135.925 51.8763C135.827 51.9625 135.753 52.0363 135.749 52.4097C135.749 52.4672 135.732 56 135.732 56H134.49V50.7151H135.732V51.0762C136.065 50.8136 136.466 50.711 136.844 50.711H138.058L138.05 50.7069Z" fill="white"/>
<path d="M147.183 50.7028C148.069 50.7028 148.873 51.3347 148.873 52.3277H147.634C147.647 51.9338 147.38 51.7286 147.04 51.7286H144.279C143.754 51.7286 143.648 52.0487 143.648 52.2867C143.648 52.5246 143.767 52.8283 144.279 52.8283H147.282C148.028 52.8283 148.996 53.3289 148.996 54.408C148.996 55.4871 148.053 55.9918 147.282 55.9918H144.185C143.34 55.9918 142.471 55.4256 142.471 54.367C142.471 54.367 143.705 54.367 143.709 54.367C143.709 54.6378 143.816 54.966 144.337 54.966H147.122C147.647 54.966 147.753 54.646 147.753 54.408C147.753 54.17 147.634 53.85 147.122 53.85H144.119C143.373 53.85 142.405 53.3658 142.405 52.2826C142.405 51.1993 143.348 50.6987 144.119 50.6987H147.179L147.183 50.7028Z" fill="white"/>
<path d="M15.4127 14.0821L11.9225 18.2181L8.93264 16.1336C5.53677 13.7661 4.90928 8.99004 7.58332 5.82649L12.5049 0L13.6696 0.812427C18.0416 3.86108 18.8496 10.0076 15.4127 14.0821Z" fill="url(#paint0_linear_2_10)"/>
<path d="M19.5017 43.0709L12.9232 50.8628L11.9225 50.1653C7.51769 47.0961 6.70153 40.9003 10.1671 36.7931L14.2766 31.9226L18.4189 34.8071C21.1381 36.7028 21.6425 40.531 19.5017 43.0627V43.0709Z" fill="url(#paint1_linear_2_10)"/>
<path d="M22.635 25.6818L20.6951 24.3318L11.9224 18.2181L8.41174 15.7685L8.41994 15.7316C5.48751 13.2574 5.05688 8.82185 7.58327 5.82654L2.6043 11.7228L1.90708 12.5475C-1.16479 16.1788 -0.438857 21.6689 3.46147 24.3811L5.50802 25.809L14.2807 31.9268L18.9685 35.1929L18.9357 35.2175C21.1955 37.2158 21.499 40.7034 19.5057 43.0669L23.4922 38.3441L24.1894 37.5194C27.2613 33.8881 26.5436 28.3981 22.6391 25.6777L22.635 25.6818Z" fill="url(#paint2_linear_2_10)"/>
</g>
<defs>
<linearGradient id="paint0_linear_2_10" x1="15.8187" y1="4.58324" x2="7.57055" y2="14.8293" gradientUnits="userSpaceOnUse">
<stop stop-color="#3D4BF2"/>
<stop offset="1" stop-color="#FD34FC"/>
</linearGradient>
<linearGradient id="paint1_linear_2_10" x1="9.51092" y1="48.1178" x2="18.4903" y2="34.2898" gradientUnits="userSpaceOnUse">
<stop stop-color="#FD34FC"/>
<stop offset="1" stop-color="#3D4BF2"/>
</linearGradient>
<linearGradient id="paint2_linear_2_10" x1="1.91529" y1="15.469" x2="23.1426" y2="31.8477" gradientUnits="userSpaceOnUse">
<stop stop-color="#3135F6"/>
<stop offset="1" stop-color="#18EAE7"/>
</linearGradient>
<clipPath id="clip0_2_10">
<rect width="149" height="56" fill="white"/>
</clipPath>
</defs>
</svg>
